<svg width="87" height="25" viewBox="0 0 87 25" fill="none" xmlns="http://www.w3.org/2000/svg">
<path d="M83.5988 17.2894C83.5988 15.2631 82.704 14.1316 80.9672 14.1316C79.4935 14.1579 78.2567 15.3421 78.3093 17.2894V24.0526H74.9146V11.2368H78.3093V13.0526C79.1251 11.9473 80.4935 11.2894 81.6777 11.2894C83.7303 11.2894 86.9935 12.5526 86.9935 17.2368V24.0526H83.5988V17.2894Z" fill="#333333"/>
<mask id="path-2-outside-1_2228_636" maskUnits="userSpaceOnUse" x="40.6968" y="6.23682" width="9" height="18" fill="black">
<rect fill="white" x="40.6968" y="6.23682" width="9" height="18"/>
<path d="M43.9336 23.7631V13.421H41.6968V11.4737H43.9336V7.23682H46.1441V11.4737H49.0389V13.421H46.1441V23.7631H43.9336Z"/>
</mask>
<path d="M43.9336 23.7631V13.421H41.6968V11.4737H43.9336V7.23682H46.1441V11.4737H49.0389V13.421H46.1441V23.7631H43.9336Z" fill="#333333"/>
<path d="M43.9336 23.7631V13.421H41.6968V11.4737H43.9336V7.23682H46.1441V11.4737H49.0389V13.421H46.1441V23.7631H43.9336Z" stroke="#333333" stroke-width="0.6" mask="url(#path-2-outside-1_2228_636)"/>
<mask id="path-3-outside-2_2228_636" maskUnits="userSpaceOnUse" x="28.9841" y="10.3684" width="11" height="14" fill="black">
<rect fill="white" x="28.9841" y="10.3684" width="11" height="14"/>
<path d="M31.7473 19.8421C32.4315 21.3158 33.8789 21.9474 34.7999 21.9474C36.2736 21.9474 37.3262 21.3158 37.3262 20.2631C37.3262 19.2631 35.9578 18.8684 34.5894 18.3947C32.9052 17.8158 30.5368 17.0789 30.5368 14.7368C30.5368 12.6579 32.4578 11.3684 34.9052 11.3684C36.3526 11.3684 38.6683 12.2105 39.2473 14.3947L37.3262 15.0526C36.9315 13.6053 35.6157 13.3158 34.9052 13.3158C33.642 13.3158 32.721 13.8421 32.721 14.7368C32.721 15.7368 33.9841 16.0789 35.4578 16.5789C37.221 17.1842 39.5104 17.921 39.5104 20.2631C39.5104 22.4474 37.5104 23.8684 34.7999 23.8684C32.9315 23.8684 30.9841 22.8158 29.9841 20.8947L31.7473 19.8421Z"/>
</mask>
<path d="M31.7473 19.8421C32.4315 21.3158 33.8789 21.9474 34.7999 21.9474C36.2736 21.9474 37.3262 21.3158 37.3262 20.2631C37.3262 19.2631 35.9578 18.8684 34.5894 18.3947C32.9052 17.8158 30.5368 17.0789 30.5368 14.7368C30.5368 12.6579 32.4578 11.3684 34.9052 11.3684C36.3526 11.3684 38.6683 12.2105 39.2473 14.3947L37.3262 15.0526C36.9315 13.6053 35.6157 13.3158 34.9052 13.3158C33.642 13.3158 32.721 13.8421 32.721 14.7368C32.721 15.7368 33.9841 16.0789 35.4578 16.5789C37.221 17.1842 39.5104 17.921 39.5104 20.2631C39.5104 22.4474 37.5104 23.8684 34.7999 23.8684C32.9315 23.8684 30.9841 22.8158 29.9841 20.8947L31.7473 19.8421Z" fill="#333333"/>
<path d="M31.7473 19.8421C32.4315 21.3158 33.8789 21.9474 34.7999 21.9474C36.2736 21.9474 37.3262 21.3158 37.3262 20.2631C37.3262 19.2631 35.9578 18.8684 34.5894 18.3947C32.9052 17.8158 30.5368 17.0789 30.5368 14.7368C30.5368 12.6579 32.4578 11.3684 34.9052 11.3684C36.3526 11.3684 38.6683 12.2105 39.2473 14.3947L37.3262 15.0526C36.9315 13.6053 35.6157 13.3158 34.9052 13.3158C33.642 13.3158 32.721 13.8421 32.721 14.7368C32.721 15.7368 33.9841 16.0789 35.4578 16.5789C37.221 17.1842 39.5104 17.921 39.5104 20.2631C39.5104 22.4474 37.5104 23.8684 34.7999 23.8684C32.9315 23.8684 30.9841 22.8158 29.9841 20.8947L31.7473 19.8421Z" stroke="#333333" stroke-width="0.6" mask="url(#path-3-outside-2_2228_636)"/>
<mask id="path-4-outside-3_2228_636" maskUnits="userSpaceOnUse" x="15.1442" y="10.5" width="12" height="14" fill="black">
<rect fill="white" x="15.1442" y="10.5" width="12" height="14"/>
<path d="M18.3547 18.6316C18.3547 20.5789 19.5389 22 21.2494 22C23.1968 22 24.5389 20.7632 24.5389 18.8158V11.5H26.7494V23.7632H24.5389V22.2105C23.7231 23.2632 22.3547 23.9474 21.1179 23.9474C18.2231 23.9474 16.1442 21.7632 16.1442 18.8158V11.5H18.3547V18.6316Z"/>
</mask>
<path d="M18.3547 18.6316C18.3547 20.5789 19.5389 22 21.2494 22C23.1968 22 24.5389 20.7632 24.5389 18.8158V11.5H26.7494V23.7632H24.5389V22.2105C23.7231 23.2632 22.3547 23.9474 21.1179 23.9474C18.2231 23.9474 16.1442 21.7632 16.1442 18.8158V11.5H18.3547V18.6316Z" fill="#333333"/>
<path d="M18.3547 18.6316C18.3547 20.5789 19.5389 22 21.2494 22C23.1968 22 24.5389 20.7632 24.5389 18.8158V11.5H26.7494V23.7632H24.5389V22.2105C23.7231 23.2632 22.3547 23.9474 21.1179 23.9474C18.2231 23.9474 16.1442 21.7632 16.1442 18.8158V11.5H18.3547V18.6316Z" stroke="#333333" stroke-width="0.6" mask="url(#path-4-outside-3_2228_636)"/>
<mask id="path-5-outside-4_2228_636" maskUnits="userSpaceOnUse" x="0" y="3.60522" width="13" height="21" fill="black">
<rect fill="white" y="3.60522" width="13" height="21"/>
<path d="M11.9211 18.0789C11.9211 21.5263 9.55263 23.9473 6.21053 23.9473C4.10526 23.9473 1.94737 22.5 1 20.4473L3 19.5263C3.68421 20.9736 5 22 6.21053 22C8.26316 22 9.71053 20.3684 9.71053 18.0789V4.60522H11.9211V18.0789Z"/>
</mask>
<path d="M11.9211 18.0789C11.9211 21.5263 9.55263 23.9473 6.21053 23.9473C4.10526 23.9473 1.94737 22.5 1 20.4473L3 19.5263C3.68421 20.9736 5 22 6.21053 22C8.26316 22 9.71053 20.3684 9.71053 18.0789V4.60522H11.9211V18.0789Z" fill="#333333"/>
<path d="M11.9211 18.0789C11.9211 21.5263 9.55263 23.9473 6.21053 23.9473C4.10526 23.9473 1.94737 22.5 1 20.4473L3 19.5263C3.68421 20.9736 5 22 6.21053 22C8.26316 22 9.71053 20.3684 9.71053 18.0789V4.60522H11.9211V18.0789Z" stroke="#333333" stroke-width="0.6" mask="url(#path-5-outside-4_2228_636)"/>
<g clip-path="url(#clip0_2228_636)">
<mask id="path-6-outside-5_2228_636" maskUnits="userSpaceOnUse" x="52.7566" y="2.39905" width="21" height="22" fill="black">
<rect fill="white" x="52.7566" y="2.39905" width="21" height="22"/>
<path d="M63.1316 13.8157C62.8365 13.8157 62.5892 13.7157 62.3899 13.5157C62.1906 13.3157 62.0906 13.0685 62.0899 12.7741V4.44072C62.0899 4.14558 62.1899 3.89836 62.3899 3.69905C62.5899 3.49975 62.8371 3.39975 63.1316 3.39905C63.426 3.39836 63.6736 3.49836 63.8743 3.69905C64.075 3.89975 64.1746 4.14697 64.1733 4.44072V12.7741C64.1733 13.0692 64.0733 13.3168 63.8733 13.5168C63.6733 13.7168 63.426 13.8164 63.1316 13.8157ZM63.1316 23.1907C61.8295 23.1907 60.6101 22.9435 59.4733 22.4491C58.3365 21.9546 57.3469 21.2862 56.5045 20.4438C55.6621 19.6015 54.9937 18.6119 54.4993 17.4751C54.0049 16.3383 53.7573 15.1185 53.7566 13.8157C53.7566 12.7567 53.9302 11.7279 54.2774 10.7293C54.6246 9.73065 55.1281 8.81502 55.7878 7.98238C55.9788 7.73933 56.2219 7.62232 56.517 7.63134C56.8121 7.64037 57.0726 7.75738 57.2983 7.98238C57.4892 8.17336 57.576 8.40773 57.5587 8.68551C57.5413 8.96329 57.4458 9.2237 57.2722 9.46676C56.8035 10.0918 56.4476 10.7775 56.2045 11.5241C55.9615 12.2706 55.8399 13.0345 55.8399 13.8157C55.8399 15.847 56.5476 17.5702 57.9628 18.9855C59.3781 20.4008 61.101 21.1081 63.1316 21.1074C65.1621 21.1067 66.8854 20.3994 68.3014 18.9855C69.7174 17.5716 70.4246 15.8484 70.4233 13.8157C70.4233 13.0171 70.3062 12.24 70.0722 11.4845C69.8382 10.7289 69.4691 10.039 68.9649 9.41468C68.7913 9.18898 68.6958 8.94176 68.6785 8.67301C68.6611 8.40426 68.7479 8.17405 68.9389 7.98238C69.1472 7.77405 69.399 7.66572 69.6941 7.65738C69.9892 7.64905 70.2323 7.75738 70.4233 7.98238C71.1003 8.81572 71.617 9.72718 71.9733 10.7168C72.3295 11.7063 72.5073 12.7393 72.5066 13.8157C72.5066 15.1178 72.2594 16.3376 71.7649 17.4751C71.2705 18.6126 70.6021 19.6022 69.7597 20.4438C68.9174 21.2855 67.9278 21.9539 66.791 22.4491C65.6542 22.9442 64.4344 23.1914 63.1316 23.1907Z"/>
</mask>
<path d="M63.1316 13.8157C62.8365 13.8157 62.5892 13.7157 62.3899 13.5157C62.1906 13.3157 62.0906 13.0685 62.0899 12.7741V4.44072C62.0899 4.14558 62.1899 3.89836 62.3899 3.69905C62.5899 3.49975 62.8371 3.39975 63.1316 3.39905C63.426 3.39836 63.6736 3.49836 63.8743 3.69905C64.075 3.89975 64.1746 4.14697 64.1733 4.44072V12.7741C64.1733 13.0692 64.0733 13.3168 63.8733 13.5168C63.6733 13.7168 63.426 13.8164 63.1316 13.8157ZM63.1316 23.1907C61.8295 23.1907 60.6101 22.9435 59.4733 22.4491C58.3365 21.9546 57.3469 21.2862 56.5045 20.4438C55.6621 19.6015 54.9937 18.6119 54.4993 17.4751C54.0049 16.3383 53.7573 15.1185 53.7566 13.8157C53.7566 12.7567 53.9302 11.7279 54.2774 10.7293C54.6246 9.73065 55.1281 8.81502 55.7878 7.98238C55.9788 7.73933 56.2219 7.62232 56.517 7.63134C56.8121 7.64037 57.0726 7.75738 57.2983 7.98238C57.4892 8.17336 57.576 8.40773 57.5587 8.68551C57.5413 8.96329 57.4458 9.2237 57.2722 9.46676C56.8035 10.0918 56.4476 10.7775 56.2045 11.5241C55.9615 12.2706 55.8399 13.0345 55.8399 13.8157C55.8399 15.847 56.5476 17.5702 57.9628 18.9855C59.3781 20.4008 61.101 21.1081 63.1316 21.1074C65.1621 21.1067 66.8854 20.3994 68.3014 18.9855C69.7174 17.5716 70.4246 15.8484 70.4233 13.8157C70.4233 13.0171 70.3062 12.24 70.0722 11.4845C69.8382 10.7289 69.4691 10.039 68.9649 9.41468C68.7913 9.18898 68.6958 8.94176 68.6785 8.67301C68.6611 8.40426 68.7479 8.17405 68.9389 7.98238C69.1472 7.77405 69.399 7.66572 69.6941 7.65738C69.9892 7.64905 70.2323 7.75738 70.4233 7.98238C71.1003 8.81572 71.617 9.72718 71.9733 10.7168C72.3295 11.7063 72.5073 12.7393 72.5066 13.8157C72.5066 15.1178 72.2594 16.3376 71.7649 17.4751C71.2705 18.6126 70.6021 19.6022 69.7597 20.4438C68.9174 21.2855 67.9278 21.9539 66.791 22.4491C65.6542 22.9442 64.4344 23.1914 63.1316 23.1907Z" fill="#333333"/>
<path d="M63.1316 13.8157C62.8365 13.8157 62.5892 13.7157 62.3899 13.5157C62.1906 13.3157 62.0906 13.0685 62.0899 12.7741V4.44072C62.0899 4.14558 62.1899 3.89836 62.3899 3.69905C62.5899 3.49975 62.8371 3.39975 63.1316 3.39905C63.426 3.39836 63.6736 3.49836 63.8743 3.69905C64.075 3.89975 64.1746 4.14697 64.1733 4.44072V12.7741C64.1733 13.0692 64.0733 13.3168 63.8733 13.5168C63.6733 13.7168 63.426 13.8164 63.1316 13.8157ZM63.1316 23.1907C61.8295 23.1907 60.6101 22.9435 59.4733 22.4491C58.3365 21.9546 57.3469 21.2862 56.5045 20.4438C55.6621 19.6015 54.9937 18.6119 54.4993 17.4751C54.0049 16.3383 53.7573 15.1185 53.7566 13.8157C53.7566 12.7567 53.9302 11.7279 54.2774 10.7293C54.6246 9.73065 55.1281 8.81502 55.7878 7.98238C55.9788 7.73933 56.2219 7.62232 56.517 7.63134C56.8121 7.64037 57.0726 7.75738 57.2983 7.98238C57.4892 8.17336 57.576 8.40773 57.5587 8.68551C57.5413 8.96329 57.4458 9.2237 57.2722 9.46676C56.8035 10.0918 56.4476 10.7775 56.2045 11.5241C55.9615 12.2706 55.8399 13.0345 55.8399 13.8157C55.8399 15.847 56.5476 17.5702 57.9628 18.9855C59.3781 20.4008 61.101 21.1081 63.1316 21.1074C65.1621 21.1067 66.8854 20.3994 68.3014 18.9855C69.7174 17.5716 70.4246 15.8484 70.4233 13.8157C70.4233 13.0171 70.3062 12.24 70.0722 11.4845C69.8382 10.7289 69.4691 10.039 68.9649 9.41468C68.7913 9.18898 68.6958 8.94176 68.6785 8.67301C68.6611 8.40426 68.7479 8.17405 68.9389 7.98238C69.1472 7.77405 69.399 7.66572 69.6941 7.65738C69.9892 7.64905 70.2323 7.75738 70.4233 7.98238C71.1003 8.81572 71.617 9.72718 71.9733 10.7168C72.3295 11.7063 72.5073 12.7393 72.5066 13.8157C72.5066 15.1178 72.2594 16.3376 71.7649 17.4751C71.2705 18.6126 70.6021 19.6022 69.7597 20.4438C68.9174 21.2855 67.9278 21.9539 66.791 22.4491C65.6542 22.9442 64.4344 23.1914 63.1316 23.1907Z" stroke="#333333" mask="url(#path-6-outside-5_2228_636)"/>
</g>
<defs>
<clipPath id="clip0_2228_636">
<rect width="25" height="25" fill="white" transform="translate(50.6316)"/>
</clipPath>
</defs>
</svg>
