<svg width="86" height="23" viewBox="0 0 86 23" fill="none" xmlns="http://www.w3.org/2000/svg">
<g opacity="0.9">
<path d="M8.23187 5.89264V17.6778C8.23187 19.3885 7.04028 20.529 5.4515 20.529C4.45851 20.529 3.26692 19.7687 2.67113 18.6282L0.0893555 19.7687C1.08234 21.6695 3.26692 23.0001 5.4515 23.0001C8.82766 23.0001 11.4094 20.7191 11.4094 17.4877V5.89264H8.23187Z" fill="black"/>
<path d="M21.935 11.7851V17.8677C21.935 19.5785 20.942 20.3388 19.5518 20.3388C18.1617 20.3388 17.1687 19.5785 17.1687 17.8677V11.7851H14.1897V18.0578C14.1897 21.0991 16.1757 23 18.956 23C20.1476 23 21.3392 22.6198 21.935 21.6694V23H24.914V11.7851H21.935Z" fill="black"/>
<path d="M33.2552 16.157C32.0636 15.7768 31.2692 15.5867 31.2692 15.0165C31.2692 14.4462 31.6664 14.2562 32.6594 14.2562C33.0566 14.2562 33.851 14.4462 34.2482 15.5867L36.83 14.6363C36.2342 12.7355 34.0496 11.7851 32.6594 11.7851C30.0776 11.7851 28.2903 12.9256 28.2903 15.0165C28.2903 17.1074 30.4748 17.8677 32.0636 18.438C33.2552 18.8181 34.0496 19.0082 34.0496 19.5785C34.0496 20.1487 33.4538 20.5289 32.4608 20.5289C31.6664 20.5289 30.6734 19.9586 30.2762 18.8181L27.8931 20.1487C28.6875 21.8595 30.6734 23 32.4608 23C35.2412 23 37.0286 21.6694 37.0286 19.5785C37.2272 17.2975 34.844 16.5372 33.2552 16.157Z" fill="black"/>
<path d="M44.1781 11.7851V7.7934H41.1991V11.7851H39.0145V14.2562H41.1991V22.8099H44.1781V14.2562H46.9584V11.7851H44.1781Z" fill="black"/>
<path d="M65.8252 3.99176V7.03308C67.8112 8.17357 69.0028 10.0744 69.0028 12.9256C69.0028 16.9174 66.421 19.5785 62.4491 19.5785C58.4771 19.5785 55.8953 16.9174 55.8953 12.9256C55.8953 10.2645 57.0869 8.17357 59.0729 7.03308V3.99176C55.1009 5.13225 52.5192 8.55374 52.5192 12.9256C52.5192 18.438 56.6897 22.4298 62.4491 22.4298C68.2084 22.4298 72.379 18.6281 72.379 12.9256C72.1804 8.55374 69.7972 5.32234 65.8252 3.99176Z" fill="black"/>
<path d="M80.1244 11.7851C79.1315 11.7851 77.7413 12.3553 77.1455 13.3058V11.7851H74.1665V22.8099H77.1455V17.1074C77.1455 15.3967 78.1385 14.4462 79.5286 14.4462C81.1174 14.4462 81.9118 15.3967 81.9118 17.1074V23H85.0894V16.9173C84.8908 12.9256 81.9118 11.7851 80.1244 11.7851Z" fill="black"/>
<path d="M63.8392 0H61.0588V12.5454H63.8392V0Z" fill="black"/>
</g>
</svg>
