<svg width="52" height="55" viewBox="0 0 52 55" fill="none" xmlns="http://www.w3.org/2000/svg">
<mask id="path-1-outside-1_2182_3297" maskUnits="userSpaceOnUse" x="-0.0629883" y="0.168945" width="52" height="55" fill="black">
<rect fill="white" x="-0.0629883" y="0.168945" width="52" height="55"/>
<path d="M26.0008 29.0176C25.2117 29.0176 24.5508 28.7502 24.018 28.2156C23.4851 27.6809 23.2178 27.0199 23.2159 26.2327V3.95382C23.2159 3.16477 23.4833 2.50383 24.018 1.971C24.5527 1.43816 25.2136 1.17081 26.0008 1.16895C26.788 1.1671 27.4498 1.43445 27.9864 1.971C28.5229 2.50755 28.7894 3.16849 28.7857 3.95382V26.2327C28.7857 27.0218 28.5183 27.6836 27.9836 28.2183C27.4489 28.753 26.788 29.0195 26.0008 29.0176ZM26.0008 54.0814C22.5197 54.0814 19.2596 53.4204 16.2203 52.0986C13.1811 50.7767 10.5355 48.9897 8.28348 46.7377C6.03146 44.4857 4.2445 41.84 2.92262 38.8008C1.60074 35.7616 0.938868 32.5005 0.937012 29.0176C0.937012 26.1863 1.40116 23.4358 2.32944 20.766C3.25773 18.0963 4.60375 15.6484 6.3675 13.4224C6.87805 12.7726 7.52786 12.4597 8.3169 12.4839C9.10595 12.508 9.80216 12.8208 10.4056 13.4224C10.9161 13.9329 11.1482 14.5595 11.1018 15.3021C11.0554 16.0448 10.8001 16.741 10.3359 17.3908C9.08274 19.0617 8.13124 20.8951 7.48144 22.8909C6.83164 24.8867 6.50674 26.9289 6.50674 29.0176C6.50674 34.4481 8.39859 39.0552 12.1823 42.8389C15.966 46.6226 20.5722 48.5135 26.0008 48.5116C31.4294 48.5098 36.0365 46.6189 39.8221 42.8389C43.6076 39.0589 45.4985 34.4518 45.4948 29.0176C45.4948 26.8825 45.182 24.805 44.5563 22.7851C43.9307 20.7651 42.9439 18.9206 41.596 17.2515C41.1319 16.6482 40.8766 15.9872 40.8302 15.2687C40.7838 14.5502 41.0158 13.9348 41.5264 13.4224C42.0834 12.8654 42.7564 12.5758 43.5454 12.5535C44.3345 12.5312 44.9843 12.8208 45.4948 13.4224C47.305 15.6502 48.6863 18.087 49.6387 20.7326C50.5911 23.3782 51.0664 26.1399 51.0646 29.0176C51.0646 32.4987 50.4036 35.7598 49.0817 38.8008C47.7599 41.8419 45.9729 44.4875 43.7209 46.7377C41.4689 48.9879 38.8232 50.7748 35.784 52.0986C32.7448 53.4223 29.4837 54.0832 26.0008 54.0814Z"/>
</mask>
<path d="M26.0008 29.0176C25.2117 29.0176 24.5508 28.7502 24.018 28.2156C23.4851 27.6809 23.2178 27.0199 23.2159 26.2327V3.95382C23.2159 3.16477 23.4833 2.50383 24.018 1.971C24.5527 1.43816 25.2136 1.17081 26.0008 1.16895C26.788 1.1671 27.4498 1.43445 27.9864 1.971C28.5229 2.50755 28.7894 3.16849 28.7857 3.95382V26.2327C28.7857 27.0218 28.5183 27.6836 27.9836 28.2183C27.4489 28.753 26.788 29.0195 26.0008 29.0176ZM26.0008 54.0814C22.5197 54.0814 19.2596 53.4204 16.2203 52.0986C13.1811 50.7767 10.5355 48.9897 8.28348 46.7377C6.03146 44.4857 4.2445 41.84 2.92262 38.8008C1.60074 35.7616 0.938868 32.5005 0.937012 29.0176C0.937012 26.1863 1.40116 23.4358 2.32944 20.766C3.25773 18.0963 4.60375 15.6484 6.3675 13.4224C6.87805 12.7726 7.52786 12.4597 8.3169 12.4839C9.10595 12.508 9.80216 12.8208 10.4056 13.4224C10.9161 13.9329 11.1482 14.5595 11.1018 15.3021C11.0554 16.0448 10.8001 16.741 10.3359 17.3908C9.08274 19.0617 8.13124 20.8951 7.48144 22.8909C6.83164 24.8867 6.50674 26.9289 6.50674 29.0176C6.50674 34.4481 8.39859 39.0552 12.1823 42.8389C15.966 46.6226 20.5722 48.5135 26.0008 48.5116C31.4294 48.5098 36.0365 46.6189 39.8221 42.8389C43.6076 39.0589 45.4985 34.4518 45.4948 29.0176C45.4948 26.8825 45.182 24.805 44.5563 22.7851C43.9307 20.7651 42.9439 18.9206 41.596 17.2515C41.1319 16.6482 40.8766 15.9872 40.8302 15.2687C40.7838 14.5502 41.0158 13.9348 41.5264 13.4224C42.0834 12.8654 42.7564 12.5758 43.5454 12.5535C44.3345 12.5312 44.9843 12.8208 45.4948 13.4224C47.305 15.6502 48.6863 18.087 49.6387 20.7326C50.5911 23.3782 51.0664 26.1399 51.0646 29.0176C51.0646 32.4987 50.4036 35.7598 49.0817 38.8008C47.7599 41.8419 45.9729 44.4875 43.7209 46.7377C41.4689 48.9879 38.8232 50.7748 35.784 52.0986C32.7448 53.4223 29.4837 54.0832 26.0008 54.0814Z" fill="#251F25"/>
<path d="M26.0008 29.0176C25.2117 29.0176 24.5508 28.7502 24.018 28.2156C23.4851 27.6809 23.2178 27.0199 23.2159 26.2327V3.95382C23.2159 3.16477 23.4833 2.50383 24.018 1.971C24.5527 1.43816 25.2136 1.17081 26.0008 1.16895C26.788 1.1671 27.4498 1.43445 27.9864 1.971C28.5229 2.50755 28.7894 3.16849 28.7857 3.95382V26.2327C28.7857 27.0218 28.5183 27.6836 27.9836 28.2183C27.4489 28.753 26.788 29.0195 26.0008 29.0176ZM26.0008 54.0814C22.5197 54.0814 19.2596 53.4204 16.2203 52.0986C13.1811 50.7767 10.5355 48.9897 8.28348 46.7377C6.03146 44.4857 4.2445 41.84 2.92262 38.8008C1.60074 35.7616 0.938868 32.5005 0.937012 29.0176C0.937012 26.1863 1.40116 23.4358 2.32944 20.766C3.25773 18.0963 4.60375 15.6484 6.3675 13.4224C6.87805 12.7726 7.52786 12.4597 8.3169 12.4839C9.10595 12.508 9.80216 12.8208 10.4056 13.4224C10.9161 13.9329 11.1482 14.5595 11.1018 15.3021C11.0554 16.0448 10.8001 16.741 10.3359 17.3908C9.08274 19.0617 8.13124 20.8951 7.48144 22.8909C6.83164 24.8867 6.50674 26.9289 6.50674 29.0176C6.50674 34.4481 8.39859 39.0552 12.1823 42.8389C15.966 46.6226 20.5722 48.5135 26.0008 48.5116C31.4294 48.5098 36.0365 46.6189 39.8221 42.8389C43.6076 39.0589 45.4985 34.4518 45.4948 29.0176C45.4948 26.8825 45.182 24.805 44.5563 22.7851C43.9307 20.7651 42.9439 18.9206 41.596 17.2515C41.1319 16.6482 40.8766 15.9872 40.8302 15.2687C40.7838 14.5502 41.0158 13.9348 41.5264 13.4224C42.0834 12.8654 42.7564 12.5758 43.5454 12.5535C44.3345 12.5312 44.9843 12.8208 45.4948 13.4224C47.305 15.6502 48.6863 18.087 49.6387 20.7326C50.5911 23.3782 51.0664 26.1399 51.0646 29.0176C51.0646 32.4987 50.4036 35.7598 49.0817 38.8008C47.7599 41.8419 45.9729 44.4875 43.7209 46.7377C41.4689 48.9879 38.8232 50.7748 35.784 52.0986C32.7448 53.4223 29.4837 54.0832 26.0008 54.0814Z" stroke="#251F25" mask="url(#path-1-outside-1_2182_3297)"/>
</svg>
